<svg id="visual" viewBox="0 0 900 600" width="900" height="600" xmlns="http://www.w3.org/2000/svg" xmlns:xlink="http://www.w3.org/1999/xlink" version="1.1"><g stroke-width="1" stroke-linejoin="bevel"><path d="M452 305L459 361L527 297Z" fill="#297ea6" stroke="#297ea6"></path><path d="M459 361L530 389L527 297Z" fill="#297ea6" stroke="#297ea6"></path><path d="M530 389L585 295L527 297Z" fill="#00101c" stroke="#00101c"></path><path d="M585 295L510 229L527 297Z" fill="#1d4e6b" stroke="#1d4e6b"></path><path d="M527 297L510 229L452 305Z" fill="#277297" stroke="#277297"></path><path d="M365 356L455 433L459 361Z" fill="#081a28" stroke="#081a28"></path><path d="M459 361L455 433L530 389Z" fill="#15384f" stroke="#15384f"></path><path d="M510 229L459 206L452 305Z" fill="#205a7a" stroke="#205a7a"></path><path d="M610 452L611 375L530 389Z" fill="#0c2435" stroke="#0c2435"></path><path d="M530 389L611 375L585 295Z" fill="#205a7a" stroke="#205a7a"></path><path d="M357 301L365 356L452 305Z" fill="#205a7a" stroke="#205a7a"></path><path d="M452 305L365 356L459 361Z" fill="#15384f" stroke="#15384f"></path><path d="M455 433L523 458L530 389Z" fill="#1d4e6b" stroke="#1d4e6b"></path><path d="M364 226L357 301L452 305Z" fill="#0c2435" stroke="#0c2435"></path><path d="M674 287L610 228L585 295Z" fill="#0c2435" stroke="#0c2435"></path><path d="M585 295L610 228L510 229Z" fill="#081a28" stroke="#081a28"></path><path d="M510 229L531 162L459 206Z" fill="#00101c" stroke="#00101c"></path><path d="M459 206L364 226L452 305Z" fill="#277297" stroke="#277297"></path><path d="M523 458L610 452L530 389Z" fill="#00101c" stroke="#00101c"></path><path d="M610 228L531 162L510 229Z" fill="#0c2435" stroke="#0c2435"></path><path d="M459 206L445 148L364 226Z" fill="#19435d" stroke="#19435d"></path><path d="M316 447L367 460L365 356Z" fill="#19435d" stroke="#19435d"></path><path d="M365 356L367 460L455 433Z" fill="#081a28" stroke="#081a28"></path><path d="M432 515L532 520L523 458Z" fill="#0c2435" stroke="#0c2435"></path><path d="M610 452L675 362L611 375Z" fill="#277297" stroke="#277297"></path><path d="M611 375L674 287L585 295Z" fill="#297ea6" stroke="#297ea6"></path><path d="M675 362L674 287L611 375Z" fill="#1d4e6b" stroke="#1d4e6b"></path><path d="M531 162L445 148L459 206Z" fill="#15384f" stroke="#15384f"></path><path d="M364 226L308 282L357 301Z" fill="#1d4e6b" stroke="#1d4e6b"></path><path d="M357 301L308 282L365 356Z" fill="#15384f" stroke="#15384f"></path><path d="M432 515L523 458L455 433Z" fill="#205a7a" stroke="#205a7a"></path><path d="M523 458L593 516L610 452Z" fill="#112e42" stroke="#112e42"></path><path d="M367 460L432 515L455 433Z" fill="#00101c" stroke="#00101c"></path><path d="M610 228L604 159L531 162Z" fill="#297ea6" stroke="#297ea6"></path><path d="M531 162L467 83L445 148Z" fill="#19435d" stroke="#19435d"></path><path d="M677 220L604 159L610 228Z" fill="#0c2435" stroke="#0c2435"></path><path d="M368 134L318 218L364 226Z" fill="#246688" stroke="#246688"></path><path d="M364 226L318 218L308 282Z" fill="#112e42" stroke="#112e42"></path><path d="M289 391L316 447L365 356Z" fill="#205a7a" stroke="#205a7a"></path><path d="M367 460L379 540L432 515Z" fill="#205a7a" stroke="#205a7a"></path><path d="M243 380L289 391L308 282Z" fill="#246688" stroke="#246688"></path><path d="M308 282L289 391L365 356Z" fill="#246688" stroke="#246688"></path><path d="M532 520L593 516L523 458Z" fill="#081a28" stroke="#081a28"></path><path d="M610 452L690 463L675 362Z" fill="#1d4e6b" stroke="#1d4e6b"></path><path d="M743 205L677 220L674 287Z" fill="#081a28" stroke="#081a28"></path><path d="M674 287L677 220L610 228Z" fill="#00101c" stroke="#00101c"></path><path d="M445 148L368 134L364 226Z" fill="#19435d" stroke="#19435d"></path><path d="M382 55L368 134L445 148Z" fill="#1d4e6b" stroke="#1d4e6b"></path><path d="M593 516L690 463L610 452Z" fill="#00101c" stroke="#00101c"></path><path d="M675 362L735 311L674 287Z" fill="#1d4e6b" stroke="#1d4e6b"></path><path d="M294 517L379 540L367 460Z" fill="#112e42" stroke="#112e42"></path><path d="M432 515L526 600L532 520Z" fill="#205a7a" stroke="#205a7a"></path><path d="M532 520L526 600L593 516Z" fill="#297ea6" stroke="#297ea6"></path><path d="M753 355L735 311L675 362Z" fill="#297ea6" stroke="#297ea6"></path><path d="M536 67L467 83L531 162Z" fill="#112e42" stroke="#112e42"></path><path d="M231 290L243 380L308 282Z" fill="#081a28" stroke="#081a28"></path><path d="M289 391L216 461L316 447Z" fill="#1d4e6b" stroke="#1d4e6b"></path><path d="M316 447L294 517L367 460Z" fill="#081a28" stroke="#081a28"></path><path d="M659 85L595 91L604 159Z" fill="#297ea6" stroke="#297ea6"></path><path d="M604 159L595 91L531 162Z" fill="#246688" stroke="#246688"></path><path d="M681 131L604 159L677 220Z" fill="#112e42" stroke="#112e42"></path><path d="M368 134L295 159L318 218Z" fill="#081a28" stroke="#081a28"></path><path d="M212 238L231 290L308 282Z" fill="#205a7a" stroke="#205a7a"></path><path d="M287 87L295 159L368 134Z" fill="#081a28" stroke="#081a28"></path><path d="M690 463L753 355L675 362Z" fill="#297ea6" stroke="#297ea6"></path><path d="M212 238L308 282L318 218Z" fill="#277297" stroke="#277297"></path><path d="M595 91L536 67L531 162Z" fill="#00101c" stroke="#00101c"></path><path d="M743 205L674 287L735 311Z" fill="#081a28" stroke="#081a28"></path><path d="M743 205L681 131L677 220Z" fill="#112e42" stroke="#112e42"></path><path d="M430 600L526 600L432 515Z" fill="#246688" stroke="#246688"></path><path d="M593 516L692 536L690 463Z" fill="#246688" stroke="#246688"></path><path d="M216 461L294 517L316 447Z" fill="#112e42" stroke="#112e42"></path><path d="M379 540L430 600L432 515Z" fill="#15384f" stroke="#15384f"></path><path d="M381 600L430 600L379 540Z" fill="#15384f" stroke="#15384f"></path><path d="M830 288L743 205L735 311Z" fill="#205a7a" stroke="#205a7a"></path><path d="M656 600L692 536L593 516Z" fill="#0c2435" stroke="#0c2435"></path><path d="M690 463L749 465L753 355Z" fill="#00101c" stroke="#00101c"></path><path d="M741 512L749 465L690 463Z" fill="#205a7a" stroke="#205a7a"></path><path d="M303 600L381 600L379 540Z" fill="#0c2435" stroke="#0c2435"></path><path d="M295 159L212 238L318 218Z" fill="#246688" stroke="#246688"></path><path d="M164 439L216 461L243 380Z" fill="#081a28" stroke="#081a28"></path><path d="M467 83L382 55L445 148Z" fill="#205a7a" stroke="#205a7a"></path><path d="M295 159L221 130L212 238Z" fill="#205a7a" stroke="#205a7a"></path><path d="M441 0L382 55L467 83Z" fill="#297ea6" stroke="#297ea6"></path><path d="M614 0L516 0L536 67Z" fill="#112e42" stroke="#112e42"></path><path d="M681 131L659 85L604 159Z" fill="#1d4e6b" stroke="#1d4e6b"></path><path d="M758 68L659 85L681 131Z" fill="#1d4e6b" stroke="#1d4e6b"></path><path d="M526 600L614 600L593 516Z" fill="#246688" stroke="#246688"></path><path d="M148 300L243 380L231 290Z" fill="#112e42" stroke="#112e42"></path><path d="M243 380L216 461L289 391Z" fill="#081a28" stroke="#081a28"></path><path d="M294 517L303 600L379 540Z" fill="#19435d" stroke="#19435d"></path><path d="M761 600L741 512L692 536Z" fill="#15384f" stroke="#15384f"></path><path d="M692 536L741 512L690 463Z" fill="#297ea6" stroke="#297ea6"></path><path d="M382 55L287 87L368 134Z" fill="#19435d" stroke="#19435d"></path><path d="M614 600L656 600L593 516Z" fill="#112e42" stroke="#112e42"></path><path d="M831 234L759 145L743 205Z" fill="#112e42" stroke="#112e42"></path><path d="M743 205L759 145L681 131Z" fill="#081a28" stroke="#081a28"></path><path d="M749 465L815 382L753 355Z" fill="#0c2435" stroke="#0c2435"></path><path d="M753 355L830 288L735 311Z" fill="#1d4e6b" stroke="#1d4e6b"></path><path d="M824 433L815 382L749 465Z" fill="#0c2435" stroke="#0c2435"></path><path d="M614 0L536 67L595 91Z" fill="#1d4e6b" stroke="#1d4e6b"></path><path d="M536 67L516 0L467 83Z" fill="#205a7a" stroke="#205a7a"></path><path d="M382 55L318 0L287 87Z" fill="#246688" stroke="#246688"></path><path d="M224 600L303 600L294 517Z" fill="#00101c" stroke="#00101c"></path><path d="M516 0L441 0L467 83Z" fill="#297ea6" stroke="#297ea6"></path><path d="M287 87L221 130L295 159Z" fill="#277297" stroke="#277297"></path><path d="M815 382L830 288L753 355Z" fill="#0c2435" stroke="#0c2435"></path><path d="M216 461L216 531L294 517Z" fill="#15384f" stroke="#15384f"></path><path d="M134 539L216 531L216 461Z" fill="#205a7a" stroke="#205a7a"></path><path d="M149 242L148 300L212 238Z" fill="#19435d" stroke="#19435d"></path><path d="M212 238L148 300L231 290Z" fill="#205a7a" stroke="#205a7a"></path><path d="M136 371L164 439L243 380Z" fill="#00101c" stroke="#00101c"></path><path d="M828 544L749 465L741 512Z" fill="#0c2435" stroke="#0c2435"></path><path d="M828 544L824 433L749 465Z" fill="#1d4e6b" stroke="#1d4e6b"></path><path d="M815 382L900 316L830 288Z" fill="#081a28" stroke="#081a28"></path><path d="M694 0L614 0L659 85Z" fill="#00101c" stroke="#00101c"></path><path d="M659 85L614 0L595 91Z" fill="#081a28" stroke="#081a28"></path><path d="M830 288L831 234L743 205Z" fill="#1d4e6b" stroke="#1d4e6b"></path><path d="M287 87L232 81L221 130Z" fill="#1d4e6b" stroke="#1d4e6b"></path><path d="M441 0L362 0L382 55Z" fill="#297ea6" stroke="#297ea6"></path><path d="M147 169L149 242L212 238Z" fill="#00101c" stroke="#00101c"></path><path d="M148 300L136 371L243 380Z" fill="#081a28" stroke="#081a28"></path><path d="M89 302L136 371L148 300Z" fill="#00101c" stroke="#00101c"></path><path d="M318 0L232 81L287 87Z" fill="#1d4e6b" stroke="#1d4e6b"></path><path d="M221 130L147 169L212 238Z" fill="#081a28" stroke="#081a28"></path><path d="M362 0L318 0L382 55Z" fill="#246688" stroke="#246688"></path><path d="M808 131L758 68L759 145Z" fill="#1d4e6b" stroke="#1d4e6b"></path><path d="M759 145L758 68L681 131Z" fill="#19435d" stroke="#19435d"></path><path d="M831 234L808 131L759 145Z" fill="#15384f" stroke="#15384f"></path><path d="M132 81L147 169L221 130Z" fill="#081a28" stroke="#081a28"></path><path d="M149 242L89 302L148 300Z" fill="#0c2435" stroke="#0c2435"></path><path d="M133 600L224 600L216 531Z" fill="#19435d" stroke="#19435d"></path><path d="M216 531L224 600L294 517Z" fill="#19435d" stroke="#19435d"></path><path d="M134 539L216 461L164 439Z" fill="#112e42" stroke="#112e42"></path><path d="M656 600L761 600L692 536Z" fill="#277297" stroke="#277297"></path><path d="M758 68L694 0L659 85Z" fill="#1d4e6b" stroke="#1d4e6b"></path><path d="M761 600L828 544L741 512Z" fill="#15384f" stroke="#15384f"></path><path d="M900 390L900 316L815 382Z" fill="#00101c" stroke="#00101c"></path><path d="M830 288L900 214L831 234Z" fill="#1d4e6b" stroke="#1d4e6b"></path><path d="M61 234L89 302L149 242Z" fill="#246688" stroke="#246688"></path><path d="M88 522L134 539L164 439Z" fill="#081a28" stroke="#081a28"></path><path d="M900 390L815 382L824 433Z" fill="#1d4e6b" stroke="#1d4e6b"></path><path d="M831 234L900 161L808 131Z" fill="#00101c" stroke="#00101c"></path><path d="M900 467L900 390L824 433Z" fill="#00101c" stroke="#00101c"></path><path d="M808 131L810 65L758 68Z" fill="#081a28" stroke="#081a28"></path><path d="M758 68L759 0L694 0Z" fill="#15384f" stroke="#15384f"></path><path d="M900 92L810 65L808 131Z" fill="#15384f" stroke="#15384f"></path><path d="M70 448L164 439L136 371Z" fill="#19435d" stroke="#19435d"></path><path d="M810 65L759 0L758 68Z" fill="#112e42" stroke="#112e42"></path><path d="M900 316L900 214L830 288Z" fill="#15384f" stroke="#15384f"></path><path d="M89 302L71 381L136 371Z" fill="#081a28" stroke="#081a28"></path><path d="M828 544L900 467L824 433Z" fill="#205a7a" stroke="#205a7a"></path><path d="M318 0L207 0L232 81Z" fill="#0c2435" stroke="#0c2435"></path><path d="M232 81L132 81L221 130Z" fill="#0c2435" stroke="#0c2435"></path><path d="M147 169L61 234L149 242Z" fill="#00101c" stroke="#00101c"></path><path d="M165 0L132 81L232 81Z" fill="#205a7a" stroke="#205a7a"></path><path d="M89 302L0 315L71 381Z" fill="#205a7a" stroke="#205a7a"></path><path d="M71 381L70 448L136 371Z" fill="#205a7a" stroke="#205a7a"></path><path d="M761 600L838 600L828 544Z" fill="#081a28" stroke="#081a28"></path><path d="M828 544L900 530L900 467Z" fill="#00101c" stroke="#00101c"></path><path d="M900 214L900 161L831 234Z" fill="#0c2435" stroke="#0c2435"></path><path d="M810 65L817 0L759 0Z" fill="#205a7a" stroke="#205a7a"></path><path d="M88 149L61 234L147 169Z" fill="#246688" stroke="#246688"></path><path d="M71 381L0 377L70 448Z" fill="#297ea6" stroke="#297ea6"></path><path d="M132 81L88 149L147 169Z" fill="#1d4e6b" stroke="#1d4e6b"></path><path d="M70 448L88 522L164 439Z" fill="#0c2435" stroke="#0c2435"></path><path d="M134 539L133 600L216 531Z" fill="#112e42" stroke="#112e42"></path><path d="M74 600L133 600L134 539Z" fill="#246688" stroke="#246688"></path><path d="M900 600L900 530L828 544Z" fill="#00101c" stroke="#00101c"></path><path d="M900 0L817 0L810 65Z" fill="#1d4e6b" stroke="#1d4e6b"></path><path d="M207 0L165 0L232 81Z" fill="#246688" stroke="#246688"></path><path d="M132 81L65 77L88 149Z" fill="#081a28" stroke="#081a28"></path><path d="M900 161L900 92L808 131Z" fill="#00101c" stroke="#00101c"></path><path d="M838 600L900 600L828 544Z" fill="#00101c" stroke="#00101c"></path><path d="M0 211L61 234L0 169Z" fill="#00101c" stroke="#00101c"></path><path d="M0 211L0 315L61 234Z" fill="#205a7a" stroke="#205a7a"></path><path d="M61 234L0 315L89 302Z" fill="#112e42" stroke="#112e42"></path><path d="M70 448L0 468L88 522Z" fill="#00101c" stroke="#00101c"></path><path d="M0 315L0 377L71 381Z" fill="#0c2435" stroke="#0c2435"></path><path d="M88 522L74 600L134 539Z" fill="#00101c" stroke="#00101c"></path><path d="M91 0L65 77L132 81Z" fill="#15384f" stroke="#15384f"></path><path d="M0 534L74 600L88 522Z" fill="#15384f" stroke="#15384f"></path><path d="M0 169L61 234L88 149Z" fill="#297ea6" stroke="#297ea6"></path><path d="M0 377L0 468L70 448Z" fill="#15384f" stroke="#15384f"></path><path d="M65 77L0 169L88 149Z" fill="#1d4e6b" stroke="#1d4e6b"></path><path d="M165 0L91 0L132 81Z" fill="#246688" stroke="#246688"></path><path d="M65 77L0 61L0 169Z" fill="#277297" stroke="#277297"></path><path d="M900 92L900 0L810 65Z" fill="#1d4e6b" stroke="#1d4e6b"></path><path d="M0 468L0 534L88 522Z" fill="#081a28" stroke="#081a28"></path><path d="M0 0L0 61L65 77Z" fill="#112e42" stroke="#112e42"></path><path d="M0 534L0 600L74 600Z" fill="#297ea6" stroke="#297ea6"></path><path d="M91 0L0 0L65 77Z" fill="#0c2435" stroke="#0c2435"></path></g></svg>